Coordinates
version=1
nRows=6
nColumns=63
inDegrees=yes

Units are S.I. units (second, meters, Newtons, ...)
If the header above contains a line with 'inDegrees', this indicates whether rotational values are in degrees (yes) or radians (no).

endheader
time	pelvis_tilt	pelvis_list	pelvis_rotation	pelvis_tx	pelvis_ty	pelvis_tz	hip_flexion_r	hip_adduction_r	hip_rotation_r	knee_angle_r	knee_angle_r_beta	ankle_angle_r	subtalar_angle_r	mtp_angle_r	hip_flexion_l	hip_adduction_l	hip_rotation_l	knee_angle_l	knee_angle_l_beta	ankle_angle_l	subtalar_angle_l	mtp_angle_l	L5_S1_Flex_Ext	L5_S1_Lat_Bending	L5_S1_axial_rotation	L4_L5_Flex_Ext	L4_L5_Lat_Bending	L4_L5_axial_rotation	L3_L4_Flex_Ext	L3_L4_Lat_Bending	L3_L4_axial_rotation	L2_L3_Flex_Ext	L2_L3_Lat_Bending	L2_L3_axial_rotation	L1_L2_Flex_Ext	L1_L2_Lat_Bending	L1_L2_axial_rotation	L1_T12_Flex_Ext	L1_T12_Lat_Bending	L1_T12_axial_rotation	Abs_r3	Abs_r2	Abs_r1	Abs_t1	Abs_t2	neck_flexion	neck_bending	neck_rotation	arm_flex_r	arm_add_r	arm_rot_r	elbow_flex_r	pro_sup_r	wrist_flex_r	wrist_dev_r	arm_flex_l	arm_add_l	arm_rot_l	elbow_flex_l	pro_sup_l	wrist_flex_l	wrist_dev_l
      0.74576271	     -3.42083938	     -2.31724022	     81.50024467	      0.19910928	      1.02514624	      0.47206398	      3.68821216	     -2.56600968	     -4.56596095	      7.14267921	      0.12466327	     26.52730082	      8.96239846	      0.00000000	      3.13418782	      2.97728466	     -4.44885193	      3.23001553	      0.05637441	     25.02437420	      2.98971176	      0.00000000	     -0.11518230	     -0.17352987	     -0.57345199	     -0.21390505	     -0.23079472	     -0.60929274	     -0.18923301	     -0.42192052	     -0.60929274	     -0.13164185	     -0.42192052	     -0.50177049	     -0.10695829	     -0.35386211	     -0.46592974	     -0.06581517	     -0.26879777	     -0.43008899	     -0.82273567	     -1.96300457	     -3.18936792	      0.00000000	      0.00000000	      1.98746804	      0.99805772	     12.86916618	     81.36510625	   -107.86779679	     92.92282614	     13.36522119	     12.81893354	      2.07731738	     11.82268829	    -97.14619777	    -56.99326223	    -31.89466371	     11.45797711	     22.81828276	     -3.23986134	     -4.29080977
      0.76271186	     -3.48069450	     -2.28348913	     81.48932389	      0.19936397	      1.02527637	      0.47215576	      3.68853145	     -2.54590212	     -3.50094150	      7.15643857	      0.12490342	     26.43132059	      7.69966297	      0.00000000	      3.12255521	      2.98482330	     -5.70489045	      3.26880057	      0.05705133	     25.32161357	      4.71679825	      0.00000000	     -0.11969630	     -0.18909528	     -0.58722803	     -0.22228799	     -0.25149672	     -0.62392979	     -0.19664905	     -0.45976626	     -0.62392979	     -0.13680090	     -0.45976626	     -0.51382453	     -0.11114998	     -0.38560309	     -0.47712278	     -0.06839446	     -0.29290859	     -0.44042103	     -0.85497868	     -2.13908363	     -3.26598616	      0.00000000	      0.00000000	      1.94644850	      1.29695901	     12.74375996	     83.87218340	   -107.63367164	     89.73428424	     13.13299800	     16.46511083	      1.97424583	     12.30255952	    -97.28703928	    -56.75313319	    -34.81440590	     11.68144669	     25.52524522	     -3.38048214	     -3.41020459
      0.77966102	     -3.42785476	     -2.37081596	     81.50483404	      0.19927329	      1.02523701	      0.47205315	      3.72007744	     -2.46233215	     -3.28786113	      7.04151757	      0.12289767	     26.31520977	      7.52919116	      0.00000000	      3.24632660	      2.89650792	     -6.14787481	      3.39516025	      0.05925673	     25.35128898	      5.13014649	      0.00000000	     -0.10697868	     -0.18263812	     -0.61053096	     -0.19867011	     -0.24290870	     -0.64868915	     -0.17575527	     -0.44406632	     -0.64868915	     -0.12226593	     -0.44406632	     -0.53421459	     -0.09934040	     -0.37243565	     -0.49605641	     -0.06112762	     -0.28290644	     -0.45789822	     -0.76413802	     -2.06603890	     -3.39559006	      0.00000000	      0.00000000	      1.89411844	      1.34859830	     12.80632257	     85.21566040	   -107.41153345	     87.50322928	     12.93992473	     17.47576232	      1.87751652	     12.73098764	    -97.29521634	    -56.78722521	    -35.54002121	     11.71629303	     26.61134034	     -3.60332880	     -1.56789587
      0.79661017	     -3.30139573	     -2.54865270	     81.54293794	      0.19850670	      1.02491748	      0.47173630	      3.91076939	     -2.42705819	     -4.44420794	      7.13379891	      0.12450828	     26.54401791	      9.08495287	      0.00000000	      3.34290763	      2.85636070	     -4.07049412	      3.30865846	      0.05774698	     24.73690591	      2.19334396	      0.00000000	     -0.08241862	     -0.15415661	     -0.63159598	     -0.15305962	     -0.20502830	     -0.67107073	     -0.13540555	     -0.37481639	     -0.67107073	     -0.09419624	     -0.37481639	     -0.55264648	     -0.07653393	     -0.31435617	     -0.51317173	     -0.04709400	     -0.23878859	     -0.47369699	     -0.58870797	     -1.74385044	     -3.51274737	      0.00000000	      0.00000000	      1.82752615	      1.11980027	     12.93245532	     83.27492694	   -107.45383668	     89.62637882	     12.87351096	     12.32782645	      2.20303511	     12.49246682	    -97.90605634	    -57.24150721	    -31.13334367	     12.06784279	     22.64473442	     -3.97298083	      0.22078413
      0.81355932	     -3.27418292	     -2.60791002	     81.46294360	      0.19845945	      1.02473247	      0.47152548	      3.96580921	     -2.39732896	     -4.38116296	      7.15673393	      0.12490857	     26.52351853	      9.01824433	      0.00000000	      3.36448860	      2.81406080	     -4.38832582	      3.36443683	      0.05872050	     24.52911198	      2.36590027	      0.00000000	     -0.07196147	     -0.15200571	     -0.64447883	     -0.13363965	     -0.20216760	     -0.68475876	     -0.11822550	     -0.36958669	     -0.68475876	     -0.08224477	     -0.36958669	     -0.56391898	     -0.06682342	     -0.30997005	     -0.52363905	     -0.04111879	     -0.23545685	     -0.48335912	     -0.51401361	     -1.71951902	     -3.58439791	      0.00000000	      0.00000000	      1.74190511	      1.20195159	     12.85332247	     83.30009084	   -107.28482707	     89.47969619	     12.76728422	     13.77102493	      1.77012768	     11.94440147	    -98.27712326	    -57.32291126	    -31.25577070	     12.22732349	     23.35036552	     -4.13573492	      2.02885747
      0.83050847	     -3.24092837	     -2.62614194	     81.48279159	      0.19824531	      1.02447465	      0.47162744	      3.99463175	     -2.37704751	     -4.50496434	      7.22043843	      0.12602042	     26.45004159	      8.86841319	      0.00000000	      3.42682893	      2.75835726	     -4.84297809	      3.56050911	      0.06214261	     24.43491848	      2.91850066	      0.00000000	     -0.07817787	     -0.14636100	     -0.66852314	     -0.14518411	     -0.19466012	     -0.71030584	     -0.12843842	     -0.35586212	     -0.71030584	     -0.08934948	     -0.35586212	     -0.58495775	     -0.07259597	     -0.29845934	     -0.54317505	     -0.04467083	     -0.22671318	     -0.50139236	     -0.55841668	     -1.65566485	     -3.71812516	      0.00000000	      0.00000000	      1.96391890	      1.31533558	     13.03768020	     82.71944437	   -107.22037442	     89.88806975	     12.58659279	     15.58155797	      1.67119262	     11.13156710	    -98.57466388	    -57.54916347	    -31.13105968	     12.34604995	     23.74749510	     -4.11132692	      4.31020052
